<?xml version="1.0" encoding="UTF-8"?>
<svg width="420px" height="420px" viewBox="0 0 420 420" version="1.1" xmlns="http://www.w3.org/2000/svg" xmlns:xlink="http://www.w3.org/1999/xlink">
    <title>Path</title>
    <g id="Page-1" stroke="none" stroke-width="1" fill="none" fill-rule="evenodd">
        <g id="noun-add-3523379" transform="translate(0.690000, 0.700000)" fill="#FFFFFF" fill-rule="nonzero">
            <path d="M209.31,418.6 C324.72,418.6 418.62,324.705 418.62,209.3 C418.62,93.895 324.718,0 209.31,0 C93.902,0 0,93.895 0,209.3 C0,324.705 93.902,418.6 209.31,418.6 Z M143.755,192.49 L192.509,192.49 L192.509,143.736 C192.509,134.4587 200.0285,126.935 209.31,126.935 C218.5873,126.935 226.111,134.4545 226.111,143.736 L226.111,192.49 L274.865,192.49 C284.1423,192.49 291.666,200.0095 291.666,209.291 C291.666,218.5683 284.1465,226.092 274.865,226.092 L226.111,226.092 L226.111,274.846 C226.111,284.1233 218.5915,291.647 209.31,291.647 C200.0327,291.647 192.509,284.1275 192.509,274.846 L192.509,226.092 L143.755,226.092 C134.4777,226.092 126.954,218.5725 126.954,209.291 C126.954,200.0137 134.4774,192.49 143.755,192.49 Z" id="Shape"></path>
        </g>
    </g>
</svg>